<?xml version="1.0" standalone="no"?>
<!DOCTYPE svg PUBLIC "-//W3C//DTD SVG 20010904//EN"
 "http://www.w3.org/TR/2001/REC-SVG-20010904/DTD/svg10.dtd">
<svg version="1.0" xmlns="http://www.w3.org/2000/svg"
 width="786.000000pt" height="786.000000pt" viewBox="0 0 786.000000 786.000000"
 preserveAspectRatio="xMidYMid meet">
<metadata>
Created by potrace 1.14, written by Peter Selinger 2001-2017
</metadata>
<g transform="translate(0.000000,786.000000) scale(0.100000,-0.100000)"
fill="#000000" stroke="none">
<path d="M4885 7838 c-53 -11 -55 -11 -92 -31 -36 -19 -80 -59 -103 -95 -8
-12 -28 -25 -44 -28 -52 -9 -179 -63 -256 -108 -136 -79 -262 -185 -405 -337
-217 -233 -431 -542 -645 -934 -18 -33 -34 -61 -35 -63 -2 -2 -32 14 -67 36
-180 113 -483 274 -659 350 -95 41 -269 109 -299 117 -8 2 -44 13 -80 24 -83
26 -222 58 -280 65 -25 3 -63 8 -85 12 -22 4 -92 7 -155 6 -183 0 -316 -37
-443 -122 -155 -104 -239 -251 -273 -480 -8 -55 -7 -199 2 -266 10 -74 8 -81
-31 -115 -33 -29 -72 -90 -83 -129 -24 -86 -2 -193 55 -259 37 -44 118 -87
176 -94 21 -3 40 -7 41 -8 1 -2 18 -42 36 -89 49 -125 222 -463 324 -633 48
-81 87 -149 85 -151 -2 -2 -40 -22 -84 -46 -378 -203 -723 -448 -962 -682 -79
-77 -94 -89 -115 -82 -41 13 -125 6 -171 -14 -170 -75 -224 -288 -109 -431 18
-22 18 -27 4 -70 -9 -28 -15 -90 -16 -161 -1 -93 3 -128 21 -185 76 -240 296
-423 652 -542 57 -19 111 -36 120 -38 102 -24 308 -65 352 -69 31 -4 66 -9 78
-11 12 -2 56 -7 99 -10 42 -4 91 -9 107 -11 17 -3 172 -7 345 -9 l315 -4 -2
-137 c-1 -121 -4 -139 -20 -148 -10 -5 -33 -25 -52 -44 -125 -129 -89 -355 69
-437 22 -11 30 -23 31 -43 0 -15 2 -36 4 -47 2 -11 7 -42 10 -70 12 -96 64
-341 94 -436 119 -385 305 -623 551 -702 406 -132 903 200 1374 918 44 66 87
131 96 145 9 14 49 84 90 155 40 72 84 149 97 173 13 23 27 41 31 38 4 -2 38
-23 76 -46 455 -276 935 -483 1246 -535 19 -3 42 -8 50 -10 32 -8 168 -18 245
-18 230 1 393 61 526 194 87 85 135 172 170 305 22 84 30 291 15 404 -21 160
-100 442 -172 614 l-34 80 28 55 c35 73 37 183 5 246 -44 84 -125 142 -211
152 -26 2 -50 10 -55 16 -4 7 -43 72 -86 145 l-79 132 42 24 c22 13 91 52 151
86 149 84 426 259 445 280 3 3 39 30 80 60 209 153 420 355 534 510 216 294
265 565 146 805 -74 149 -211 273 -411 370 -103 50 -326 127 -390 134 -4 1
-14 19 -23 41 -71 177 -311 223 -449 85 -42 -42 -46 -44 -88 -39 -24 2 -183 7
-354 9 -170 2 -311 8 -312 12 -1 4 -4 152 -7 328 -2 176 -7 329 -9 340 -3 11
-8 57 -11 102 -4 45 -8 90 -10 100 -2 10 -7 43 -11 73 -13 88 -13 92 -25 155
-63 332 -189 620 -344 783 -30 31 -51 64 -53 80 -16 139 -104 236 -234 260
-24 4 -62 4 -84 0z m-192 -420 c72 -110 221 -158 333 -109 26 12 50 21 55 21
14 0 100 -128 139 -208 36 -73 105 -267 115 -322 2 -14 15 -79 29 -145 13 -66
27 -147 31 -180 4 -33 8 -73 10 -90 2 -16 7 -73 11 -125 3 -52 8 -111 10 -130
2 -19 3 -127 3 -240 0 -113 0 -224 1 -247 0 -23 -3 -44 -8 -47 -5 -3 -37 -7
-73 -11 -35 -3 -84 -7 -109 -10 -25 -3 -70 -7 -100 -10 -69 -7 -217 -25 -250
-30 -14 -2 -45 -6 -70 -10 -25 -3 -56 -8 -70 -10 -14 -2 -45 -7 -70 -11 -25
-4 -54 -8 -65 -10 -11 -2 -33 -5 -50 -8 -94 -15 -114 -18 -150 -27 -57 -12
-56 -12 -96 24 -19 17 -55 48 -80 68 -132 109 -223 182 -299 239 -47 36 -87
68 -90 71 -3 3 -77 57 -165 119 -88 62 -164 117 -169 121 -9 8 48 117 147 284
33 55 65 109 71 120 63 110 228 338 346 480 72 86 235 244 310 301 77 59 248
154 276 154 7 0 18 -10 27 -22z m-2828 -819 c99 -16 100 -16 184 -38 199 -52
419 -140 678 -271 161 -82 463 -258 463 -270 0 -4 -22 -54 -49 -111 -101 -216
-197 -446 -282 -679 -28 -74 -56 -150 -63 -169 -12 -32 -21 -37 -122 -73 -102
-37 -264 -98 -309 -117 -11 -5 -60 -26 -110 -46 -117 -48 -225 -96 -354 -156
-57 -27 -107 -46 -112 -44 -7 5 -127 201 -191 315 -52 92 -158 309 -208 424
l-51 120 26 58 c29 65 34 139 14 207 -15 50 -82 129 -133 156 -29 16 -36 26
-37 50 0 16 -2 39 -5 50 -6 32 -5 175 1 230 15 119 83 242 162 295 119 78 295
103 498 69z m1667 -806 c68 -47 135 -96 149 -107 14 -12 41 -32 59 -46 120
-89 309 -245 302 -252 -4 -4 -41 -14 -82 -23 -94 -20 -84 -18 -210 -50 -58
-15 -109 -28 -115 -29 -70 -17 -324 -89 -448 -128 -54 -16 -101 -28 -103 -25
-9 9 204 527 292 710 10 20 21 37 26 37 4 0 63 -39 130 -87z m2778 -436 c14
-3 31 -5 37 -6 7 0 21 -18 32 -38 70 -136 252 -187 386 -108 22 13 48 33 57
44 24 28 39 27 175 -18 339 -111 524 -280 527 -481 3 -269 -291 -631 -783
-963 -188 -127 -543 -337 -570 -337 -4 0 -30 32 -57 72 -106 156 -427 576
-499 654 -51 54 -100 120 -101 133 0 9 3 29 8 45 4 16 10 52 13 79 3 28 8 53
9 56 2 3 7 28 10 54 4 26 11 71 17 100 5 29 12 70 14 92 3 22 8 58 11 80 11
77 13 90 19 155 4 36 9 72 10 81 2 9 6 54 10 100 4 46 8 95 10 109 2 14 4 42
4 62 1 26 6 38 19 41 20 5 606 -1 642 -6z m-904 -75 c-14 -150 -17 -179 -21
-212 -3 -19 -7 -57 -11 -85 -3 -27 -15 -113 -26 -190 -11 -77 -22 -157 -25
-178 -13 -98 -9 -98 -108 9 -116 125 -404 414 -529 529 l-98 90 44 8 c126 22
322 50 438 63 25 2 59 7 75 9 17 2 66 7 110 10 44 4 81 7 82 8 1 1 18 3 38 4
l37 2 -6 -67z m-1015 -182 c134 -122 243 -226 396 -380 119 -118 195 -197 411
-430 29 -30 52 -59 52 -65 0 -32 -94 -436 -155 -665 -89 -330 -187 -640 -206
-650 -8 -5 -90 -31 -184 -60 -93 -29 -177 -54 -185 -57 -8 -4 -19 -7 -25 -9
-5 -1 -75 -20 -155 -42 -237 -66 -558 -144 -690 -168 -14 -3 -33 -7 -43 -10
-9 -3 -29 4 -45 16 -140 110 -713 683 -911 910 -17 19 -29 42 -26 50 2 8 18
78 34 155 70 326 151 626 263 981 l51 161 51 17 c259 86 740 222 930 262 12 3
86 19 166 37 80 18 152 33 161 33 9 -1 58 -39 110 -86z m-1706 -380 c-5 -8
-61 -187 -90 -290 -9 -32 -116 -436 -118 -450 -21 -96 -52 -220 -57 -219 -13
1 -350 441 -443 578 -46 69 -48 75 -31 85 35 20 288 132 439 193 285 117 315
127 300 103z m-715 -781 c52 -68 116 -151 143 -184 27 -33 54 -67 60 -75 20
-27 161 -194 174 -208 16 -17 16 -19 -3 -122 -16 -90 -18 -100 -28 -170 -4
-25 -13 -83 -21 -130 -13 -82 -40 -293 -50 -395 -8 -84 -17 -188 -19 -223 -1
-19 -8 -37 -16 -42 -14 -9 -604 -5 -650 3 -14 3 -61 8 -105 12 -184 15 -446
67 -605 122 -314 107 -491 274 -497 468 -1 39 3 90 9 113 10 39 14 42 62 56
63 18 125 70 162 134 24 42 27 57 27 139 l0 93 92 87 c121 117 143 136 260
225 192 145 330 234 590 380 l149 84 86 -121 c48 -67 129 -177 180 -246z
m3609 -104 c160 -200 361 -475 361 -495 0 -6 -26 -22 -57 -36 -32 -14 -87 -39
-123 -56 -163 -75 -558 -234 -565 -226 -3 2 11 53 29 114 32 103 92 314 101
351 3 10 22 88 44 173 22 85 42 166 45 180 35 163 34 159 49 140 7 -9 59 -74
116 -145z m-2345 -1285 l50 -44 -35 -7 c-44 -9 -66 -12 -284 -42 -198 -28
-246 -33 -350 -42 -38 -3 -89 -8 -112 -11 -39 -4 -42 -3 -38 18 2 13 6 59 10
103 7 87 11 128 26 250 18 149 22 177 39 280 13 83 18 124 19 148 1 12 114
-95 314 -295 171 -173 334 -334 361 -358z m2865 558 c58 -91 150 -249 152
-260 2 -7 -5 -28 -15 -46 -26 -51 -35 -148 -17 -202 37 -115 109 -178 225
-198 l39 -7 49 -129 c46 -121 110 -333 122 -407 34 -209 22 -399 -31 -504
-105 -205 -346 -264 -740 -181 -173 37 -496 161 -718 276 -178 93 -378 208
-457 262 l-27 19 50 107 c89 188 194 441 274 657 43 116 82 215 87 221 5 6 43
24 86 38 42 15 102 37 132 49 30 12 57 22 60 23 3 0 14 4 25 9 11 4 63 25 115
46 142 56 363 151 470 203 52 25 97 46 100 46 3 0 12 -10 19 -22z m-1308 -505
c-5 -10 -42 -101 -81 -203 -40 -102 -85 -212 -101 -245 -37 -81 -62 -139 -63
-145 -1 -3 -16 -36 -34 -73 -22 -44 -39 -67 -47 -63 -51 19 -633 462 -634 481
-1 6 34 19 77 29 242 55 752 193 833 225 40 16 61 14 50 -6z m-1195 -371 c188
-159 419 -338 627 -486 75 -54 137 -103 137 -109 0 -7 -8 -25 -18 -42 -10 -16
-36 -61 -57 -100 -37 -69 -84 -151 -108 -190 -332 -539 -630 -853 -932 -981
-61 -25 -82 -29 -165 -29 -102 0 -137 10 -205 56 -172 116 -285 348 -370 761
-2 9 -7 38 -11 65 -3 26 -8 55 -9 63 -2 9 -6 42 -10 73 l-7 58 47 45 c75 72
103 164 83 273 -9 47 -65 125 -115 161 l-42 31 4 136 c3 75 6 137 7 139 2 1
35 5 73 9 209 19 269 25 460 51 99 13 189 26 200 28 11 2 40 7 65 10 25 4 90
15 145 25 55 11 105 20 110 20 6 1 47 -29 91 -67z"/>
<path d="M3935 4492 c-62 -7 -152 -34 -215 -65 -76 -38 -203 -157 -242 -229
-101 -184 -109 -375 -22 -564 121 -265 435 -400 721 -309 248 78 417 308 416
565 -1 97 -4 118 -33 205 -54 163 -200 308 -366 366 -73 24 -192 39 -259 31z"/>
</g>
</svg>
